#!OML:ASF \\Waltz\H\Terrain\Patient Classification 1\Animal2\Wednesday\Animal2.ASF
:FULLY-SPECIFIED
:DEGREES
782
root 4.85482 16.2412 -10.5043 246.081 -91.7283 -252.565
lowerback 10.0279 -2.35211 4.69429
upperback -2.12844 -2.51146 0.388093
thorax -8.09114 -1.4382 -1.80198
lowerneck -1.27907 7.37276 15.0223
upperneck 1.11842 9.9916 -18.483
head 2.28605 4.83672 -7.79923
rclavicle -3.49613e-014 5.1684e-015
rhumerus -41.5591 50.1679 -90.6469
rradius 48.1927
rwrist 33.7608
rhand 1.37544 33.9557
rfingers 7.12502
rthumb 26.9071 5.85101
lclavicle -3.49613e-014 5.1684e-015
lhumerus -56.1261 -51.0898 93.8286
lradius 49.2419
lwrist -6.72768
lhand -14.4595 7.09849
lfingers 7.12502
lthumb 11.686 36.7526
rfemur -17.4106 -18.6138 23.1496
rtibia 60.1188
rfoot -36.828 -12.7285
rtoes 28.182
lfemur -20.4618 20.478 -14.8952
ltibia 60.0132
lfoot -30.9948 -3.8545
ltoes -0.071884
783
root 4.83694 16.132 -10.5007 251.364 -91.929 -257.943
lowerback 10.2637 -2.40965 4.77428
upperback -2.01192 -2.56712 0.39373
thorax -8.10918 -1.46705 -1.82526
lowerneck -1.52685 7.22018 15.2674
upperneck 1.18427 9.75613 -18.4246
head 2.31522 4.71187 -7.82911
rclavicle 1.05356e-014 -1.21259e-014
rhumerus -42.2121 49.1386 -91.7809
rradius 46.7216
rwrist 34.3852
rhand 0.358434 34.0727
rfingers 7.12502
rthumb 25.9336 5.82173
lclavicle 1.05356e-014 -1.21259e-014
lhumerus -55.0704 -50.0429 94.0546
lradius 47.4557
lwrist -7.45423
lhand -14.8581 6.59545
lfingers 7.12502
lthumb 11.3016 36.271
rfemur -17.5289 -18.4575 23.2133
rtibia 60.9746
rfoot -37.6255 -11.9703
rtoes 28.009
lfemur -21.0814 20.9275 -14.4832
ltibia 61.651
lfoot -31.8545 -4.84926
ltoes 2.36187
784
root 4.81602 16.047 -10.4967 259.274 -92.022 -265.855
lowerback 10.3585 -2.42845 4.63963
upperback -1.91106 -2.60314 0.453377
thorax -8.04742 -1.47412 -1.67927
lowerneck -1.65285 7.05351 15.238
upperneck 1.12265 9.49651 -18.0848
head 2.2529 4.58537 -7.72835
rclavicle 2.14439e-014 -5.56597e-015
rhumerus -42.8004 48.3808 -92.8218
rradius 45.2779
rwrist 34.6864
rhand -0.582987 34.0911
rfingers 7.12502
rthumb 25.0319 5.71133
lclavicle 2.14439e-014 -5.56597e-015
lhumerus -54.1903 -49.1425 94.6264
lradius 45.7557
lwrist -7.65097
lhand -15.208 6.42608
lfingers 7.12502
lthumb 10.9642 36.1198
rfemur -17.7894 -18.4779 23.2325
rtibia 61.7611
rfoot -38.1996 -11.6493
rtoes 27.4696
lfemur -21.5391 21.4713 -14.1887
ltibia 62.8764
lfoot -32.465 -6.12869
ltoes 5.49218
785
root 4.79548 15.9758 -10.4874 267.186 -92.17 -273.656
lowerback 10.3463 -2.48483 4.59584
upperback -1.85638 -2.68618 0.4568
thorax -7.98459 -1.51063 -1.63827
lowerneck -1.80282 6.83735 15.331
upperneck 1.12422 9.16959 -17.6402
head 2.20229 4.42733 -7.61736
rclavicle 1.19022e-014 -1.49089e-014
rhumerus -43.2937 47.5993 -93.8917
rradius 43.8272
rwrist 35.0625
rhand -1.24438 35.6576
rfingers 7.12502
rthumb 24.398 7.191
lclavicle 1.19022e-014 -1.49089e-014
lhumerus -53.4491 -48.391 95.261
lradius 44.1139
lwrist -7.7733
lhand -15.3284 6.72768
lfingers 7.12502
lthumb 10.848 36.4275
rfemur -18.3327 -18.7889 23.3627
rtibia 62.664
rfoot -38.5449 -11.5994
rtoes 27.0903
lfemur -22.0161 21.947 -13.9957
ltibia 63.8747
lfoot -33.2233 -5.62845
ltoes 2.8724
786
root 4.77162 15.9575 -10.4793 274.363 -92.2239 -280.683
lowerback 10.4297 -2.55559 4.67607
upperback -1.9462 -2.77941 0.215365
thorax -8.1534 -1.56911 -1.91681
lowerneck -1.94663 6.50376 15.6139
upperneck 1.46491 8.71155 -17.0803
head 2.22972 4.20671 -7.50699
rclavicle 4.3919e-014 6.06293e-015
rhumerus -44.0862 46.418 -95.2914
rradius 42.4511
rwrist 35.6851
rhand -1.63561 37.0486
rfingers 7.12502
rthumb 24.0228 8.53193
lclavicle 4.3919e-014 6.06293e-015
lhumerus -53.2856 -48.0446 96.064
lradius 42.7014
lwrist -8.37413
lhand -14.9719 7.35726
lfingers 7.12502
lthumb 11.1919 37.0387
rfemur -18.9202 -19.1907 23.372
rtibia 63.4961
rfoot -38.7173 -11.3194
rtoes 28.4269
lfemur -22.2931 22.2862 -13.9868
ltibia 64.5331
lfoot -33.8421 -4.24421
ltoes -2.58043
787
root 4.75153 15.907 -10.4736 283.279 -92.3317 -289.512
lowerback 10.6435 -2.59763 4.60307
upperback -2.0767 -2.83905 0.0932474
thorax -8.42526 -1.60345 -1.98276
lowerneck -2.21837 6.13149 15.5661
upperneck 2.0105 8.2029 -16.4252
head 2.31305 3.95351 -7.30772
rclavicle 3.87195e-014 -7.65321e-015
rhumerus -45.0393 45.3173 -96.4885
rradius 41.2573
rwrist 36.0332
rhand -1.77573 36.432
rfingers 7.12502
rthumb 23.8885 7.89767
lclavicle 3.87195e-014 -7.65321e-015
lhumerus -53.7135 -48.1274 97.5218
lradius 41.6412
lwrist -8.89425
lhand -14.3991 7.39682
lfingers 7.12502
lthumb 11.7442 37.0476
rfemur -19.6551 -19.5024 23.3809
rtibia 64.5055
rfoot -39.159 -10.1584
rtoes 31.5317
lfemur -22.6126 22.5346 -13.9129
ltibia 65.2713
lfoot -34.1758 -4.0001
ltoes -3.8393
788
root 4.72774 15.8588 -10.4686 293.518 -92.5974 -299.679
lowerback 10.7225 -2.67595 4.40361
upperback -2.08962 -2.96565 0.102747
thorax -8.48222 -1.65552 -1.83371
lowerneck -2.65193 5.82435 15.3478
upperneck 2.45754 7.75298 -15.7877
head 2.4036 3.72247 -7.07834
rclavicle 1.68284e-014 3.97569e-016
rhumerus -45.7299 44.4288 -97.3223
rradius 40.2857
rwrist 36.3661
rhand -1.65975 37.1323
rfingers 7.12502
rthumb 23.9997 8.61258
lclavicle 1.68284e-014 3.97569e-016
lhumerus -54.0199 -48.1278 98.8547
lradius 40.8277
lwrist -9.3723
lhand -13.5893 7.26529
lfingers 7.12502
lthumb 12.5251 36.8699
rfemur -20.196 -19.6876 23.4962
rtibia 65.3315
rfoot -39.506 -9.62754
rtoes 31.9939
lfemur -22.8246 22.8035 -13.7862
ltibia 65.9051
lfoot -34.5696 -3.83136
ltoes -4.39889
789
root 4.70501 15.8109 -10.4632 306 -92.7812 -312.138
lowerback 10.7292 -2.81645 3.89757
upperback -2.00773 -3.22311 0.109625
thorax -8.38344 -1.75267 -1.49733
lowerneck -3.09127 5.53826 14.8635
upperneck 2.73973 7.32361 -15.1425
head 2.44515 3.49996 -6.8027
rclavicle -1.6232e-014 -2.88238e-015
rhumerus -46.4772 44.0905 -98.1088
rradius 39.7558
rwrist 36.9398
rhand -1.35599 38.4534
rfingers 7.12502
rthumb 24.2909 9.97236
lclavicle -1.6232e-014 -2.88238e-015
lhumerus -54.045 -47.8043 99.8097
lradius 40.2191
lwrist -10.0201
lhand -12.719 7.77637
lfingers 7.12502
lthumb 13.364 37.3278
rfemur -20.5569 -19.7246 23.3389
rtibia 66.0097
rfoot -39.3196 -10.9014
rtoes 28.1601
lfemur -22.8973 23.226 -13.9101
ltibia 66.4163
lfoot -34.8451 -4.18212
ltoes -3.24554
790
root 4.68349 15.7706 -10.4541 319.087 -92.9673 -325.223
lowerback 10.7146 -2.93343 3.29299
upperback -1.89668 -3.46667 0.0710645
thorax -8.23251 -1.83983 -1.15954
lowerneck -3.63238 5.14934 14.1059
upperneck 2.95092 6.74603 -14.387
head 2.45309 3.20055 -6.45448
rclavicle -5.7045e-014 5.51627e-015
rhumerus -47.4413 44.1521 -98.8254
rradius 39.6633
rwrist 37.6528
rhand -1.38546 37.8968
rfingers 7.12502
rthumb 24.2627 9.41197
lclavicle -5.7045e-014 5.51627e-015
lhumerus -54.4394 -47.9907 101.034
lradius 40.1527
lwrist -10.5149
lhand -12.0709 8.4879
lfingers 7.12502
lthumb 13.9887 37.9972
rfemur -20.7786 -19.5678 22.9468
rtibia 66.4567
rfoot -39.1087 -11.9708
rtoes 25.4573
lfemur -22.832 23.6407 -14.2253
ltibia 66.6779
lfoot -34.9262 -5.00914
ltoes 0.230109
791
root 4.66187 15.7601 -10.4457 326.247 -93.4987 -332.413
lowerback 10.6855 -3.03539 3.10606
upperback -1.72582 -3.63949 -0.0374901
thorax -8.03497 -1.91464 -1.14557
lowerneck -4.20969 4.70511 13.75
upperneck 3.16197 6.07969 -13.71
head 2.47908 2.86255 -6.20455
rclavicle -2.41927e-014 4.91992e-015
rhumerus -48.5516 44.1468 -99.7204
rradius 40.0527
rwrist 38.0664
rhand -1.0204 38.0445
rfingers 7.12502
rthumb 24.6127 9.60696
lclavicle -2.41927e-014 4.91992e-015
lhumerus -55.108 -48.5901 102.068
lradius 40.6069
lwrist -10.9575
lhand -11.4683 8.84326
lfingers 7.12502
lthumb 14.5693 38.3116
rfemur -20.8196 -19.0785 22.8345
rtibia 66.6375
rfoot -39.3784 -11.0421
rtoes 27.948
lfemur -22.556 23.9148 -14.197
ltibia 66.6423
lfoot -35.0099 -4.84025
ltoes 0.960699
792
root 4.63571 15.7871 -10.4455 332.313 -94.3205 -338.511
lowerback 10.6128 -3.09604 2.78846
upperback -1.55534 -3.77156 -0.093733
thorax -7.7981 -1.96314 -1.01352
lowerneck -4.49525 4.24155 13.7614
upperneck 3.2138 5.40529 -13.3727
head 2.43651 2.5286 -6.13162
rclavicle -4.51548e-014 1.81702e-015
rhumerus -50.1651 44.5617 -101.065
rradius 41.1201
rwrist 37.8713
rhand -0.204324 38.4602
rfingers 7.12502
rthumb 25.3947 10.1315
lclavicle -4.51548e-014 1.81702e-015
lhumerus -55.7894 -48.9017 102.788
lradius 41.3725
lwrist -11.4424
lhand -11.2178 8.72418
lfingers 7.12502
lthumb 14.8107 38.1749
rfemur -20.7148 -18.1025 22.7862
rtibia 66.529
rfoot -39.5681 -9.25781
rtoes 32.3952
lfemur -21.967 24.3456 -14.0305
ltibia 66.2465
lfoot -35.0002 -4.12767
ltoes -0.517617
793
root 4.59887 15.8298 -10.4448 339.716 -95.26 -345.917
lowerback 10.394 -3.13544 2.06962
upperback -1.4122 -3.92353 -0.0639488
thorax -7.47249 -2.00392 -0.571717
lowerneck -4.65344 3.76978 13.4808
upperneck 3.14754 4.74515 -13.0815
head 2.33687 2.19973 -6.02481
rclavicle -1.03989e-014 2.48481e-016
rhumerus -52.0525 45.3778 -102.362
rradius 42.5144
rwrist 37.8602
rhand -0.247709 36.7025
rfingers 7.12502
rthumb 25.3531 8.36784
lclavicle -1.03989e-014 2.48481e-016
lhumerus -56.5092 -48.9319 103.524
lradius 42.3821
lwrist -11.7538
lhand -11.1333 8.54752
lfingers 7.12502
lthumb 14.892 37.9923
rfemur -20.3999 -17.036 22.4825
rtibia 66.0762
rfoot -39.557 -8.08903
rtoes 35.3429
lfemur -21.1471 24.9968 -14.123
ltibia 65.5592
lfoot -35.0268 -3.42173
ltoes -2.05681
794
root 4.56386 15.8754 -10.4379 344.951 -96.2382 -351.097
lowerback 10.0489 -3.30377 1.45497
upperback -1.23499 -4.23389 -0.0614862
thorax -7.0494 -2.13064 -0.201777
lowerneck -4.90247 3.39703 13.2545
upperneck 3.09725 4.21131 -12.8702
head 2.28089 1.92894 -5.94332
rclavicle -5.30817e-015 6.75868e-015
rhumerus -53.9117 46.3413 -103.515
rradius 44.1313
rwrist 38.0422
rhand 0.988611 40.0828
rfingers 7.12502
rthumb 26.5369 11.9216
lclavicle -5.30817e-015 6.75868e-015
lhumerus -57.2797 -48.8739 104.019
lradius 43.7311
lwrist -11.5736
lhand -11.1017 8.64681
lfingers 7.12502
lthumb 14.9225 38.0893
rfemur -19.974 -16.313 22.1727
rtibia 65.3
rfoot -39.2343 -8.00602
rtoes 34.9865
lfemur -20.3871 25.458 -14.3579
ltibia 64.6593
lfoot -34.8924 -2.4463
ltoes -3.95658
795
root 4.53307 15.9371 -10.4265 347.246 -97.2769 -353.148
lowerback 9.58052 -3.50952 1.25938
upperback -1.14487 -4.54149 -0.0932654
thorax -6.68034 -2.27606 -0.11062
lowerneck -5.05326 3.00719 13.2857
upperneck 3.06349 3.65838 -12.8145
head 2.22124 1.65145 -5.95594
rclavicle 3.87149e-014 7.15625e-015
rhumerus -55.9741 47.2218 -104.838
rradius 46.0243
rwrist 37.8706
rhand 1.60704 40.8311
rfingers 7.12502
rthumb 27.1287 12.7607
lclavicle 3.87149e-014 7.15625e-015
lhumerus -58.3186 -49.0229 104.502
lradius 45.2539
lwrist -11.046
lhand -11.4221 8.79176
lfingers 7.12502
lthumb 14.6139 38.2569
rfemur -19.6959 -15.72 22.119
rtibia 64.2876
rfoot -38.6148 -8.08711
rtoes 33.733
lfemur -19.8603 25.7301 -14.5362
ltibia 63.5911
lfoot -34.4463 -1.30519
ltoes -6.27932
